<?xml version="1.0" encoding="UTF-8"?>
<svg width="40px" height="40px" viewBox="0 0 40 40" version="1.1" xmlns="http://www.w3.org/2000/svg" xmlns:xlink="http://www.w3.org/1999/xlink">
    <!-- Generator: Sketch 55.2 (78181) - https://sketchapp.com -->
    <title>BTC ETH Equal Weight Set</title>
    <desc>Created with Sketch.</desc>
    <g id="BTC-ETH-Equal-Weight-Set" stroke="none" stroke-width="1" fill="none" fill-rule="evenodd">
        <circle id="Oval" fill="#1D144F" cx="20" cy="20" r="20"></circle>
        <path d="M20,40 C31.045695,40 40,31.045695 40,20 C40,8.954305 31.045695,4.61852778e-14 20,4.61852778e-14 C19.960858,4.61852778e-14 20.0256298,40 20,40 Z" id="Oval-Copy-2" fill="#13AAE0"></path>
        <g id="Group-Copy-2" transform="translate(20.325146, 20.381066) rotate(-270.000000) translate(-20.325146, -20.381066) translate(-0.174854, 0.381066)"></g>
        <g id="Group-3" transform="translate(22.903821, 9.621969)" fill="#FFFFFF">
            <path d="M8.15889955,2.93416381 L8.15889955,0.349267692 L10.0299765,0.349267692 L10.0299765,3.27755391 C11.5410548,3.81363474 12.3164845,4.94474269 12.3164845,6.63109661 L12.3164845,6.71092923 C12.3164845,8.20779076 11.597991,9.30548923 10.0013387,9.76452676 C11.857447,10.1437317 12.8553547,11.2015138 12.8553547,13.1174966 L12.8553547,13.1973292 C12.8553547,15.1539851 11.8940426,16.4176021 10.0299765,16.929622 L10.0299765,20.0017327 L8.15889955,20.0017327 L8.15889955,17.1846856 C8.05618855,17.1875337 7.95183984,17.18896 7.84585807,17.18896 L5.04043802,17.18896 L5.04043802,20.0017327 L3.16936109,20.0017327 L3.16936109,17.18896 L3.15697313,17.18896 L3.15697313,17.2513292 L0.0385115938,17.2513292 L0.0385115938,15.3802523 L1.97816084,15.3802523 L1.97816084,4.77748307 L0.0508995577,4.77748307 L0.0508995577,2.90640615 L3.16936109,2.90640615 L3.16936109,0.349267692 L5.04043802,0.349267692 L5.04043802,2.91888 L7.58640207,2.91888 C7.78322671,2.91888 7.97406929,2.92398469 8.15889955,2.93416381 Z M5.13154915,14.9536468 L7.34690422,14.9536468 C8.94355653,14.9536468 9.66205007,14.2351532 9.66205007,12.9378732 L9.66205007,12.8580406 C9.66205007,11.5408025 8.94355653,10.8622252 7.18723899,10.8622252 L5.13154915,10.8622252 L5.13154915,14.9536468 Z M5.13154915,8.78657723 L7.06749007,8.78657723 C8.62422607,8.78657723 9.24292884,8.22774892 9.24292884,6.95042707 L9.24292884,6.87059446 C9.24292884,5.67310523 8.56435161,5.13423507 7.04753191,5.13423507 L5.13154915,5.13423507 L5.13154915,8.78657723 Z" id="Combined-Shape-Copy"></path>
        </g>
        <g id="Ethereum" transform="translate(0.000000, 9.500000)" fill-rule="nonzero">
            <path d="M16.0531267,10.6312467 L11.0518982,12.8335645 L5.93968034,10.6116116 L11.0602559,11.3989197 L16.0531267,10.6312467 Z M16.8392366,10.886698 L11.0602559,20.147391 L5.31757368,10.9448657 L11.0496842,13.4595558 L16.8392366,10.886698 Z" id="Combined-Shape" fill="#13AAE0"></path>
            <path d="M16.952264,10.2353068 L11.0602559,12.8298841 L11.0602559,11.7655814 L11.0602559,0.793489877 L16.952264,10.2353068 Z M16.8392366,10.886698 L11.0602559,20.147391 L11.0602559,13.4548578 L16.8392366,10.886698 Z" id="Combined-Shape" fill="#E8F9FF"></path>
            <path d="M16.952264,10.2353068 L11.0518982,12.8335645 L5.14811505,10.267569 L11.0602559,0.793489877 L16.952264,10.2353068 Z" id="Combined-Shape" fill="#13AAE0"></path>
            <path d="M16.952264,10.2353068 L11.0602559,12.8298841 L11.0602559,10.4704404 L11.0602559,0.793489877 L16.952264,10.2353068 Z" id="Combined-Shape" fill="#FFFFFF"></path>
            <path d="M16.9139518,10.2521778 L11.0518982,12.8335645 L5.15112459,10.2688771 L11.0602559,8.4888145 L16.9139518,10.2521778 Z" id="Combined-Shape" fill-opacity="0.5" fill="#69D8FF"></path>
        </g>
    </g>
</svg>