<?xml version="1.0" encoding="UTF-8"?>
<svg width="40px" height="41px" viewBox="0 0 40 41" version="1.1" xmlns="http://www.w3.org/2000/svg" xmlns:xlink="http://www.w3.org/1999/xlink">
    <!-- Generator: Sketch 53.2 (72643) - https://sketchapp.com -->
    <title>BTC Buy And Hold</title>
    <desc>Created with Sketch.</desc>
    <g id="BTC-Buy-And-Hold" stroke="none" stroke-width="1" fill="none" fill-rule="evenodd">
        <circle id="Oval" fill="#1D144F" cx="20" cy="20.6" r="20"></circle>
        <path d="M20,40.6 C31.045695,40.6 40,31.645695 40,20.6 C40,9.554305 31.045695,0.6 20,0.6 C19.960858,0.6 20.0256298,40.6 20,40.6 Z" id="Oval-Copy-2" fill="#13AAE0"></path>
        <g id="Group-Copy-2" transform="translate(20.325146, 20.381066) rotate(-270.000000) translate(-20.325146, -20.381066) translate(-0.174854, 0.381066)"></g>
        <g id="Group-3" transform="translate(12.500000, 9.100000)" fill="#FFFFFF">
            <path d="M9.55279753,2.96036098 L9.55279753,0 L11.6956547,0 L11.6956547,3.35362965 C13.4262222,3.96757802 14.3142857,5.2629832 14.3142857,7.19428571 L14.3142857,7.28571429 C14.3142857,9 13.4914286,10.2571429 11.6628571,10.7828571 C13.7885714,11.2171429 14.9314286,12.4285714 14.9314286,14.6228571 L14.9314286,14.7142857 C14.9314286,16.9551525 13.8304827,18.402314 11.6956547,18.9887066 L11.6956547,22.5070517 L9.55279753,22.5070517 L9.55279753,19.2808191 C9.43516741,19.2840808 9.31566169,19.2857143 9.19428571,19.2857143 L5.98136896,19.2857143 L5.98136896,22.5070517 L3.83851182,22.5070517 L3.83851182,19.2857143 L3.82432446,19.2857143 L3.82432446,19.3571429 L0.252895887,19.3571429 L0.252895887,17.2142857 L2.47428571,17.2142857 L2.47428571,5.07142857 L0.267083244,5.07142857 L0.267083244,2.92857143 L3.83851182,2.92857143 L3.83851182,0 L5.98136896,0 L5.98136896,2.94285714 L8.89714286,2.94285714 C9.12255694,2.94285714 9.34112004,2.94870331 9.55279753,2.96036098 Z M6.08571429,16.7257143 L8.62285714,16.7257143 C10.4514286,16.7257143 11.2742857,15.9028571 11.2742857,14.4171429 L11.2742857,14.3257143 C11.2742857,12.8171429 10.4514286,12.04 8.44,12.04 L6.08571429,12.04 L6.08571429,16.7257143 Z M6.08571429,9.66285714 L8.30285714,9.66285714 C10.0857143,9.66285714 10.7942857,9.02285714 10.7942857,7.56 L10.7942857,7.46857143 C10.7942857,6.09714286 10.0171429,5.48 8.28,5.48 L6.08571429,5.48 L6.08571429,9.66285714 Z" id="Combined-Shape-Copy"></path>
        </g>
    </g>
</svg>