<?xml version="1.0" encoding="UTF-8"?>
<svg width="40px" height="40px" viewBox="0 0 40 40" version="1.1" xmlns="http://www.w3.org/2000/svg" xmlns:xlink="http://www.w3.org/1999/xlink">
    <!-- Generator: Sketch 57.1 (83088) - https://sketch.com -->
    <title>eth-12-day-exponential-moving-average-set</title>
    <desc>Created with Sketch.</desc>
    <g id="eth-12-day-exponential-moving-average-set" stroke="none" stroke-width="1" fill="none" fill-rule="evenodd">
        <circle id="Oval" fill="#000823" cx="20" cy="20" r="20"></circle>
        <path d="M20,40 C31.045695,40 40,31.045695 40,20 C40,8.954305 31.045695,1.59872116e-13 20,1.59872116e-13 C19.960858,1.59872116e-13 20.0256298,40 20,40 Z" id="Oval-Copy-2" fill="#2C54E5"></path>
        <g id="Ethereum" transform="translate(4.381066, 4.781066)" fill-rule="nonzero">
            <path d="M23.7803049,15.9733733 L15.6189342,29.0514912 L7.50830486,16.0543733 L15.6040052,19.6071476 L23.7803049,15.9733733 Z M8.38930486,15.5853733 L15.6189342,16.6971842 L22.6693049,15.6133733 L15.6071317,18.723143 L8.38930486,15.5853733 Z" id="Combined-Shape" fill="#5E86CD"></path>
            <path d="M23.7789342,15.9735406 L15.6189342,29.0514912 L15.6189342,19.6005406 L23.7789342,15.9735406 Z M15.6189342,1.72054063 L23.9389342,15.0535406 L15.6189342,18.7175406 L15.6189342,1.72054063 Z" id="Combined-Shape" fill="#FFFFFF"></path>
            <path d="M15.6189342,1.72054063 L23.9390009,15.0535406 L15.6071317,18.723143 L7.27100088,15.0995406 L15.6189342,1.72054063 Z" id="Combined-Shape" fill="#5E86CD"></path>
            <path d="M15.6189342,1.72054063 L23.9389342,15.0535406 L15.6189342,18.7175406 L15.6189342,1.72054063 Z" id="Combined-Shape" fill="#FFFFFF"></path>
            <path d="M15.6189342,12.5876282 L23.8852509,15.0766282 L15.6071317,18.723143 L7.27425085,15.1006282 L15.6189342,12.5876282 Z" id="Combined-Shape" fill-opacity="0.503359921" fill="#B1CBF9"></path>
        </g>
        <g id="Group-2" transform="translate(22.180000, 0.000000)" fill="#000823">
            <circle id="Oval" cx="4.71893415" cy="4.71893415" r="4.71893415"></circle>
            <circle id="Oval-Copy-3" cx="10.9210666" cy="4.71893415" r="4.71893415"></circle>
            <rect id="Rectangle" x="4.71893415" y="1.98951966e-13" width="6.76654152" height="9.4378683"></rect>
        </g>
        <text id="12" font-family="Graphik-Medium, Graphik" font-size="7.8" font-weight="400" fill="#FFFFFF">
            <tspan x="26.1117" y="7.21893415">12</tspan>
        </text>
        <path d="M27.5391,7.21893415 L27.5391,2.67153415 L26.3613,3.47493415 L26.3613,2.56233415 L27.6561,1.64193415 L28.5843,1.64193415 L28.5843,7.21893415 L27.5391,7.21893415 Z M29.4969,7.21893415 L29.4969,7.03173415 L31.6029,4.80873415 C32.1333,4.24713415 32.4531,3.75573415 32.4531,3.22533415 C32.4531,2.70273415 32.1567,2.37513415 31.6185,2.37513415 C31.0647,2.37513415 30.7137,2.69493415 30.6201,3.48273415 L29.6685,3.48273415 C29.7387,2.26593415 30.4719,1.56393415 31.6497,1.56393415 C32.8041,1.56393415 33.4905,2.22693415 33.4905,3.20973415 C33.4905,3.93513415 33.0615,4.56693415 32.3985,5.20653415 L31.1583,6.41553415 L33.5295,6.41553415 L33.5295,7.21893415 L29.4969,7.21893415 Z" id="12" fill="#FFFFFF" fill-rule="nonzero"></path>
    </g>
</svg>