<?xml version="1.0" encoding="UTF-8"?>
<svg width="40px" height="40px" viewBox="0 0 40 40" version="1.1" xmlns="http://www.w3.org/2000/svg" xmlns:xlink="http://www.w3.org/1999/xlink">
    <!-- Generator: Sketch 57.1 (83088) - https://sketch.com -->
    <title>eth-50-day-moving-average-set</title>
    <desc>Created with Sketch.</desc>
    <g id="eth-50-day-moving-average-set" stroke="none" stroke-width="1" fill="none" fill-rule="evenodd">
        <circle id="Oval" fill="#001E4C" cx="20" cy="20" r="20"></circle>
        <path d="M20,40 C31.045695,40 40,31.045695 40,20 C40,8.954305 31.045695,1.59872116e-13 20,1.59872116e-13 C19.960858,1.59872116e-13 20.0256298,40 20,40 Z" id="Oval-Copy-2" fill="#11CEBE"></path>
        <g id="Ethereum" transform="translate(4.381066, 4.781066)" fill-rule="nonzero">
            <path d="M23.7803049,15.9733733 L15.6189342,29.0514912 L7.50830486,16.0543733 L15.6040052,19.6071476 L23.7803049,15.9733733 Z M8.38930486,15.5853733 L15.6189342,16.6971842 L22.6693049,15.6133733 L15.6071317,18.723143 L8.38930486,15.5853733 Z" id="Combined-Shape" fill="#5ECDB8"></path>
            <path d="M23.7789342,15.9735406 L15.6189342,29.0514912 L15.6189342,19.6005406 L23.7789342,15.9735406 Z M15.6189342,1.72054063 L23.9389342,15.0535406 L15.6189342,18.7175406 L15.6189342,1.72054063 Z" id="Combined-Shape" fill="#FFFFFF"></path>
            <path d="M15.6189342,1.72054063 L23.9390009,15.0535406 L15.6071317,18.723143 L7.27100088,15.0995406 L15.6189342,1.72054063 Z" id="Combined-Shape" fill="#5ECDC1"></path>
            <path d="M15.6189342,1.72054063 L23.9389342,15.0535406 L15.6189342,18.7175406 L15.6189342,1.72054063 Z" id="Combined-Shape" fill="#FFFFFF"></path>
            <path d="M15.6189342,12.5876282 L23.8852509,15.0766282 L15.6071317,18.723143 L7.27425085,15.1006282 L15.6189342,12.5876282 Z" id="Combined-Shape" fill-opacity="0.5" fill="#9AFFE5"></path>
        </g>
        <g id="Group-2" transform="translate(22.180000, 0.000000)" fill="#001E4C">
            <circle id="Oval" cx="4.71893415" cy="4.71893415" r="4.71893415"></circle>
            <circle id="Oval-Copy-3" cx="10.9210666" cy="4.71893415" r="4.71893415"></circle>
            <rect id="Rectangle" x="4.71893415" y="1.98951966e-13" width="6.76654152" height="9.4378683"></rect>
        </g>
        <path d="M27.1803,7.44433624 C25.8699,7.44433624 25.2537,6.72673624 25.1913,5.76733624 L26.1585,5.76733624 C26.2443,6.28213624 26.4549,6.64093624 27.1725,6.64093624 C27.8121,6.64093624 28.1787,6.19633624 28.1787,5.50993624 C28.1787,4.83913624 27.7887,4.41013624 27.1725,4.41013624 C26.6031,4.41013624 26.2599,4.60513624 26.0103,4.89373624 L25.4799,4.89373624 L25.5267,1.78933624 L28.9119,1.78933624 L28.9119,2.60833624 L26.3223,2.60833624 L26.3145,4.12153624 C26.5329,3.87193624 26.9229,3.65353624 27.5157,3.65353624 C28.5219,3.65353624 29.2317,4.35553624 29.2317,5.52553624 C29.2317,6.70333624 28.3815,7.44433624 27.1803,7.44433624 Z M32.3829,6.61753624 C33.2409,6.61753624 33.6543,5.96233624 33.6543,4.69873624 L33.6543,4.42573624 C33.6543,3.24013624 33.2019,2.52253624 32.3673,2.52253624 C31.5249,2.52253624 31.0647,3.19333624 31.0647,4.43353624 L31.0647,4.71433624 C31.0647,5.97793624 31.5483,6.61753624 32.3829,6.61753624 Z M32.3595,7.44433624 C30.9399,7.44433624 30.0195,6.39913624 30.0195,4.72213624 L30.0195,4.44133624 C30.0195,2.74873624 30.9555,1.71133624 32.3595,1.71133624 C33.7713,1.71133624 34.6917,2.74093624 34.6917,4.41793624 L34.6917,4.69873624 C34.6917,6.37573624 33.8181,7.44433624 32.3595,7.44433624 Z" id="50" fill="#FFFFFF" fill-rule="nonzero"></path>
    </g>
</svg>