<?xml version="1.0" encoding="UTF-8"?>
<svg width="40px" height="41px" viewBox="0 0 40 41" version="1.1" xmlns="http://www.w3.org/2000/svg" xmlns:xlink="http://www.w3.org/1999/xlink">
    <!-- Generator: Sketch 53.2 (72643) - https://sketchapp.com -->
    <title>ETH Buy The Dip</title>
    <desc>Created with Sketch.</desc>
    <g id="ETH-Buy-The-Dip" stroke="none" stroke-width="1" fill="none" fill-rule="evenodd">
        <circle id="Oval" fill="#6E2001" cx="20" cy="20.6" r="20"></circle>
        <path d="M20,40.6 C31.045695,40.6 40,31.645695 40,20.6 C40,9.554305 31.045695,0.6 20,0.6 C19.960858,0.6 20.0256298,40.6 20,40.6 Z" id="Oval-Copy-2" fill="#EDA600"></path>
        <g id="Group-Copy-2" transform="translate(20.325146, 20.381066) rotate(-270.000000) translate(-20.325146, -20.381066) translate(-0.174854, 0.381066)"></g>
        <g id="Ethereum" transform="translate(4.381066, 5.381066)" fill-rule="nonzero">
            <path d="M22.6697042,15.6131013 L15.6071317,18.723143 L8.38782369,15.5853733 L15.6189342,16.6971842 L22.6697042,15.6131013 Z M23.7798231,15.9738414 L15.6189342,29.0514912 L7.50930486,16.0559839 L15.6040052,19.6071476 L23.7798231,15.9738414 Z" id="Combined-Shape" fill="#EDA600"></path>
            <path d="M23.9394367,15.0539678 L15.6189342,18.7179457 L15.6189342,17.2149719 L15.6189342,1.72054063 L23.9394367,15.0539678 Z M23.7798231,15.9738414 L15.6189342,29.0514912 L15.6189342,19.6005132 L23.7798231,15.9738414 Z" id="Combined-Shape" fill="#FFF2CF"></path>
            <path d="M23.9394367,15.0539678 L15.6071317,18.723143 L7.27000088,15.0995275 L15.6189342,1.72054063 L23.9394367,15.0539678 Z" id="Combined-Shape" fill="#EDA600"></path>
            <path d="M23.9394367,15.0539678 L15.6189342,18.7179457 L15.6189342,15.3860159 L15.6189342,1.72054063 L23.9394367,15.0539678 Z" id="Combined-Shape" fill="#FFFFFF"></path>
            <path d="M23.8853335,15.0777925 L15.6071317,18.723143 L7.27425085,15.1013747 L15.6189342,12.5876282 L23.8853335,15.0777925 Z" id="Combined-Shape" fill-opacity="0.75" fill="#FFDE87"></path>
        </g>
    </g>
</svg>